<svg width="26" height="26" viewBox="0 0 26 26" fill="none" xmlns="http://www.w3.org/2000/svg">
<rect x="1" y="1" width="24" height="24" rx="5" fill="white"/>
<rect x="1" y="1" width="24" height="24" rx="5" stroke="#EB5757" stroke-linejoin="bevel"/>
<path fill-rule="evenodd" clip-rule="evenodd" d="M17 21H20C20.5523 21 21 20.5523 21 20V6C21 5.44772 20.5523 5 20 5H17V21Z" stroke="#EB5757" stroke-width="1.5" stroke-linecap="round" stroke-linejoin="round"/>
<path fill-rule="evenodd" clip-rule="evenodd" d="M6 21H9V5H6C5.44772 5 5 5.44772 5 6V20C5 20.5523 5.44772 21 6 21Z" stroke="#EB5757" stroke-width="1.5" stroke-linecap="round" stroke-linejoin="round"/>
<path d="M17 5L13 9L9 5" stroke="#EB5757" stroke-width="1.5" stroke-linecap="round" stroke-linejoin="round"/>
<path d="M5 7.5L13 15L21 7.5" stroke="#EB5757" stroke-width="1.5" stroke-linecap="round" stroke-linejoin="round"/>
</svg>
