<svg width="62" height="62" viewBox="0 0 62 62" fill="none" xmlns="http://www.w3.org/2000/svg">
<path fill-rule="evenodd" clip-rule="evenodd" d="M12.9167 10.3333H23.25L28.4167 23.25L21.9583 27.125C24.725 32.7348 29.2652 37.275 34.875 40.0417L38.75 33.5833L51.6667 38.75V49.0833C51.6667 51.9368 49.3535 54.25 46.5 54.25C25.6464 52.9827 9.01728 36.3536 7.75 15.5C7.75 12.6465 10.0632 10.3333 12.9167 10.3333" fill="#EB5757"/>
<path d="M12.9167 10.3333H23.25L28.4167 23.25L21.9583 27.125C24.725 32.7348 29.2652 37.275 34.875 40.0417L38.75 33.5833L51.6667 38.75V49.0833C51.6667 51.9368 49.3535 54.25 46.5 54.25C25.6464 52.9827 9.01728 36.3536 7.75 15.5C7.75 12.6465 10.0632 10.3333 12.9167 10.3333" stroke="#EB5757" stroke-width="1.5" stroke-linecap="round" stroke-linejoin="round"/>
<path d="M38.75 18.0833C41.6035 18.0833 43.9167 20.3965 43.9167 23.25" stroke="#EB5757" stroke-width="3" stroke-linecap="round" stroke-linejoin="round"/>
<path d="M38.75 7.75C47.3104 7.75 54.25 14.6896 54.25 23.25" stroke="#EB5757" stroke-width="3" stroke-linecap="round" stroke-linejoin="round"/>
</svg>
