<svg width="43" height="64" viewBox="0 0 43 64" fill="none" xmlns="http://www.w3.org/2000/svg">
<path d="M36.4795 0.579151C36.8347 0.570434 37.19 0.561716 37.556 0.552734C40.0384 0.56136 40.0384 0.56136 41.3211 1.44432C41.9013 2.35371 42.087 2.80785 42.0703 3.87505C42.0764 4.26177 42.0764 4.26177 42.0825 4.6563C41.7251 6.00199 40.834 6.68474 39.6665 7.39067C38.92 7.79586 38.1667 8.18242 37.4072 8.56255C31.3013 11.6365 29.1846 16.5592 26.6406 22.625C26.8846 22.6169 27.1286 22.6087 27.3799 22.6003C28.5006 22.5675 29.6212 22.5474 30.7422 22.5274C31.1259 22.5143 31.5096 22.5012 31.9049 22.4877C34.9048 22.4477 36.9598 22.9611 39.2352 24.9551C39.4457 25.2094 39.6562 25.4636 39.873 25.7256C40.0896 25.9789 40.3061 26.2322 40.5292 26.4932C41.7557 28.2733 41.975 29.8063 41.9885 31.9479C41.9911 32.2098 41.9937 32.4718 41.9964 32.7417C42.0038 33.6038 42.0054 34.4658 42.0062 35.328C42.0087 35.9308 42.0114 36.5335 42.0141 37.1363C42.0188 38.3988 42.0202 39.6613 42.0198 40.9239C42.0197 42.5355 42.0303 44.1469 42.0438 45.7584C42.0525 47.0034 42.0541 48.2484 42.0537 49.4934C42.0546 50.0872 42.058 50.681 42.0641 51.2748C42.0979 54.9243 42.0587 57.7417 39.545 60.6103C39.2907 60.8208 39.0364 61.0312 38.7744 61.2481C38.3945 61.5729 38.3945 61.5729 38.0069 61.9042C36.264 63.1051 34.7439 63.352 32.6473 63.3821C32.3956 63.3866 32.1438 63.3911 31.8843 63.3958C31.0565 63.4091 30.2288 63.4164 29.4009 63.4225C28.9749 63.4265 28.9749 63.4265 28.5403 63.4306C27.0382 63.4446 25.5361 63.4538 24.0339 63.4592C22.486 63.4657 20.9387 63.4885 19.391 63.5151C18.1969 63.5326 17.003 63.5379 15.8089 63.5399C15.2384 63.543 14.6679 63.5506 14.0975 63.563C9.66038 63.6532 9.66038 63.6532 8.2112 62.676C7.60231 61.985 7.15427 61.3249 6.71875 60.5157C6.53263 60.2366 6.34651 59.9576 6.15475 59.6701C6.02968 59.436 5.90461 59.202 5.77576 58.9608C5.56087 58.5603 5.56087 58.5603 5.34164 58.1518C5.1999 57.8765 5.05815 57.6011 4.91211 57.3174C4.7613 57.0282 4.61049 56.7391 4.45511 56.4411C0.392178 48.4713 -0.184438 38.2185 2.42187 29.6563C2.49533 29.4055 2.56878 29.1548 2.64446 28.8964C5.71003 18.634 11.5716 9.0665 21.1719 3.87505C26.0611 1.52118 31.1033 0.658946 36.4795 0.579151Z" fill="#2F80ED"/>
</svg>
