<svg xmlns="http://www.w3.org/2000/svg" width="129" height="128" viewBox="0 0 129 128" fill="none">
<g clip-path="url(#clip0_6226_13937)">
<g clip-path="url(#clip1_6226_13937)">
<path d="M64.5 127.962C99.8462 127.962 128.5 99.3165 128.5 63.9809C128.5 28.6452 99.8462 0 64.5 0C29.1538 0 0.5 28.6452 0.5 63.9809C0.5 99.3165 29.1538 127.962 64.5 127.962Z" fill="url(#paint0_linear_6226_13937)" fill-opacity="0.16"/>
<mask id="mask0_6226_13937" style="mask-type:luminance" maskUnits="userSpaceOnUse" x="0" y="0" width="129" height="128">
<path d="M64.5 127.962C99.8462 127.962 128.5 99.3165 128.5 63.9809C128.5 28.6452 99.8462 0 64.5 0C29.1538 0 0.5 28.6452 0.5 63.9809C0.5 99.3165 29.1538 127.962 64.5 127.962Z" fill="white"/>
</mask>
<g mask="url(#mask0_6226_13937)">
<path d="M106.221 70.8375H92.1248V82.849H106.221V70.8375Z" fill="#14B16E"/>
<path d="M106.215 67.2187V77.62C106.215 76.7284 106.04 75.8456 105.699 75.0218C105.358 74.1981 104.857 73.4496 104.227 72.8191C103.596 72.1886 102.848 71.6885 102.024 71.3473C101.2 71.0061 100.317 70.8304 99.4247 70.8304H24.7285H24.565H24.5217C22.8079 70.8303 21.1619 70.1612 19.9344 68.9656C18.7069 67.7699 17.9949 66.1424 17.9502 64.4297V64.0903C17.9947 62.3775 18.7065 60.7497 19.9341 59.5539C21.1616 58.3581 22.8077 57.6888 24.5217 57.6887H96.6861C97.9378 57.6887 99.1772 57.9352 100.334 58.4142C101.49 58.8932 102.541 59.5952 103.426 60.4802C104.31 61.3652 105.012 62.4158 105.491 63.572C105.97 64.7282 106.216 65.9674 106.215 67.2187Z" fill="url(#paint1_linear_6226_13937)"/>
<path d="M106.216 82.3294V129.21C106.216 131.011 105.5 132.738 104.227 134.011C102.953 135.285 101.225 136 99.4241 136H24.7448C22.9438 136 21.2166 135.285 19.9431 134.012C18.6696 132.738 17.9541 131.012 17.9541 129.211V64.4351C17.9988 66.1478 18.7108 67.7753 19.9383 68.9709C21.1658 70.1665 22.8118 70.8357 24.5256 70.8358H24.5689H24.7324H94.7143C97.7639 70.836 100.688 72.0469 102.845 74.2022C105.002 76.3575 106.214 79.2808 106.216 82.3294Z" fill="url(#paint2_linear_6226_13937)"/>
<g clip-path="url(#clip2_6226_13937)">
<path d="M78.4189 97.1963C78.3403 97.0151 78.2091 96.8614 78.0421 96.7548C77.875 96.6482 77.6798 96.5937 77.4814 96.5982H73.7873C72.664 96.5972 71.5535 96.835 70.5303 97.2956C69.507 97.7562 68.5947 98.429 67.8544 99.2688L68.624 98.3786C69.4022 97.4816 69.8294 96.3361 69.8274 95.1516V87.6682C69.8246 87.4627 69.7591 87.2629 69.6396 87.0952C69.5201 86.9274 69.3522 86.7997 69.1581 86.7289C68.964 86.658 68.7528 86.6474 68.5526 86.6984C68.3523 86.7494 68.1722 86.8596 68.0363 87.0145L61.9579 94.011L61.832 94.1501L61.706 94.011L55.6388 87.0145C55.5439 86.9041 55.4258 86.8158 55.2928 86.7557C55.1599 86.6956 55.0153 86.6653 54.8692 86.6667C54.6 86.666 54.3412 86.7706 54.149 86.958C53.9568 87.1455 53.8466 87.4006 53.8422 87.6682V95.1655C53.8443 96.3492 54.271 97.4934 55.0455 98.3925L55.8151 99.2827C55.0748 98.4429 54.1625 97.7701 53.1392 97.3095C52.116 96.8489 51.0055 96.6111 49.8822 96.6121H46.1938C45.9963 96.6123 45.8031 96.6687 45.6369 96.7747C45.4708 96.8807 45.3386 97.0318 45.2562 97.2102C45.1738 97.3907 45.147 97.5915 45.1794 97.7871C45.2118 97.9827 45.3018 98.1644 45.4382 98.3091L58.04 112.886C58.8641 113.814 59.9964 114.417 61.2303 114.583L61.804 114.667L62.3777 114.583C63.6115 114.417 64.7439 113.814 65.568 112.886L78.2314 98.2812C78.3629 98.1367 78.4503 97.9579 78.4835 97.7658C78.5167 97.5737 78.4943 97.3762 78.4189 97.1963ZM68.8059 87.1675H68.8339C68.7914 87.1652 68.7489 87.1699 68.708 87.1814C68.7393 87.17 68.7726 87.1652 68.8059 87.1675ZM54.8692 87.1675H54.8972C54.9351 87.1652 54.973 87.1699 55.0091 87.1814C54.9636 87.1692 54.9163 87.1645 54.8692 87.1675Z" fill="white"/>
<path d="M77.4812 97.1127H73.7872C72.7273 97.1136 71.68 97.3414 70.7166 97.7807C69.7532 98.2199 68.8963 98.8602 68.2041 99.6581L62.3691 106.39V114.082C63.4778 113.937 64.4964 113.399 65.2376 112.566L77.859 97.9751C77.9255 97.9013 77.9692 97.81 77.985 97.7123C78.0009 97.6145 77.9882 97.5142 77.9484 97.4234C77.9086 97.3326 77.8434 97.2551 77.7606 97.2C77.6778 97.1449 77.5808 97.1146 77.4812 97.1127Z" fill="#DE1F26"/>
<path d="M46.236 97.1127H49.9245C50.9843 97.1136 52.0316 97.3415 52.995 97.7807C53.9584 98.2199 54.8153 98.8603 55.5075 99.6581L61.3425 106.39V114.082C60.2338 113.937 59.2153 113.399 58.474 112.566L45.8582 97.9751C45.7892 97.9021 45.7433 97.8107 45.7261 97.7121C45.7089 97.6134 45.7211 97.5119 45.7613 97.4202C45.8015 97.3284 45.8679 97.2504 45.9523 97.1957C46.0367 97.141 46.1353 97.1122 46.236 97.1127Z" fill="#DE1F26"/>
<path d="M69.3235 87.6682V95.1655C69.3247 96.227 68.9423 97.2537 68.2461 98.0587L62.3691 104.819V94.3309L68.442 87.3344C68.5094 87.2571 68.5992 87.2024 68.699 87.1775C68.7988 87.1526 68.9039 87.1588 69 87.1952C69.0962 87.2316 69.1788 87.2965 69.2366 87.3811C69.2945 87.4657 69.3248 87.5659 69.3235 87.6682Z" fill="#DE1F26"/>
<path d="M54.3937 87.6682V95.1654C54.3926 96.227 54.7749 97.2537 55.4712 98.0586L61.3341 104.819V94.3308L55.2613 87.3343C55.1947 87.2577 55.1059 87.2034 55.0071 87.1789C54.9082 87.1544 54.8042 87.1609 54.7092 87.1974C54.6142 87.234 54.5329 87.2988 54.4764 87.3831C54.4199 87.4674 54.3911 87.5669 54.3937 87.6682Z" fill="#DE1F26"/>
</g>
<path d="M111.047 82.8789C111.048 83.3846 110.847 83.8696 110.489 84.2274C110.132 84.5852 109.647 84.7864 109.141 84.7869H106.219V80.9728H109.141C109.647 80.9732 110.132 81.1743 110.489 81.5317C110.846 81.8891 111.047 82.3736 111.047 82.8789Z" fill="url(#paint3_linear_6226_13937)"/>
<path d="M111.047 82.879V98.5649C111.047 99.2474 110.776 99.902 110.293 100.385C109.811 100.867 109.156 101.138 108.473 101.138H94.0926C91.9242 101.139 89.8445 100.278 88.3108 98.7454C86.7771 97.213 85.915 95.1344 85.9141 92.9666C85.9141 90.7982 86.7757 88.7186 88.3095 87.1852C89.8433 85.6519 91.9235 84.7905 94.0926 84.7905H108.473C108.51 84.7905 108.547 84.7905 108.584 84.7905H109.141C109.392 84.7906 109.64 84.7413 109.872 84.6455C110.104 84.5497 110.314 84.4091 110.491 84.2319C110.668 84.0547 110.809 83.8444 110.905 83.6128C111.001 83.3813 111.05 83.1332 111.05 82.8826L111.047 82.879Z" fill="url(#paint4_linear_6226_13937)"/>
<path d="M99.3542 94.2895C99.8995 91.9795 98.4685 89.6649 96.1578 89.1197C93.8471 88.5745 91.5319 90.0051 90.9865 92.3151C90.4411 94.6251 91.8722 96.9397 94.1829 97.4849C96.4935 98.0301 98.8088 96.5994 99.3542 94.2895Z" fill="#81FFC9"/>
</g>
</g>
<g clip-path="url(#clip3_6226_13937)">
<path d="M81.1359 47.2246C82.5123 38.7213 76.7543 30.7091 68.275 29.3288C59.7957 27.9486 51.8061 33.7229 50.4297 42.2262C49.0533 50.7295 54.8113 58.7417 63.2906 60.122C71.7699 61.5023 79.7596 55.728 81.1359 47.2246Z" fill="#00A36A"/>
<path d="M81.3372 44.7226H79.9615C79.9616 48.0122 78.8242 51.1999 76.7432 53.7428C74.6622 56.2857 71.7664 58.0263 68.5492 58.668C65.332 59.3098 61.9924 58.813 59.0995 57.2623C56.2065 55.7116 53.9392 53.203 52.6839 50.1639C51.4286 47.1247 51.263 43.7431 52.2152 40.5952C53.1674 37.4473 55.1785 34.7279 57.906 32.9003C60.6334 31.0728 63.9084 30.2501 67.1728 30.5725C70.4373 30.895 73.4893 32.3425 75.8088 34.6686C77.1272 35.9871 78.1728 37.5539 78.8855 39.2789C79.5982 41.004 79.9639 42.8532 79.9615 44.7205H82.7128C82.7108 40.7931 81.351 36.9879 78.8649 33.9533C76.3789 30.9186 72.9205 28.8423 69.079 28.0781C65.2376 27.314 61.2507 27.9092 57.7978 29.7623C54.3449 31.6155 51.6396 34.612 50.1428 38.2412C48.646 41.8705 48.4503 45.9079 49.5892 49.6656C50.728 53.4232 53.1309 56.6687 56.3883 58.8489C59.6458 61.029 63.5563 62.0091 67.4535 61.622C71.3508 61.235 74.9936 59.5048 77.7614 56.7262C79.3342 55.1505 80.5813 53.2788 81.431 51.2185C82.2807 49.1583 82.7163 46.95 82.7128 44.7205L81.3372 44.7226Z" fill="#00A36A"/>
<path d="M64.4075 33.6884V37.827H67.1588V33.6884" fill="white"/>
<path d="M64.4075 51.6202V55.7589H67.1588V51.6202" fill="white"/>
<path d="M66.472 43.3431H65.0964C64.8219 43.3443 64.5501 43.2892 64.2977 43.1811C63.9272 43.0227 63.6102 42.7603 63.3849 42.4255C63.1942 42.1432 63.0769 41.8177 63.0434 41.4784C63.01 41.1391 63.0615 40.7968 63.1933 40.4825C63.3513 40.1104 63.6129 39.7919 63.9468 39.565C64.2863 39.3349 64.6866 39.2117 65.0964 39.2109H66.472C66.7458 39.2115 67.0167 39.2673 67.2686 39.375C67.6391 39.5334 67.956 39.7958 68.1814 40.1306C68.4119 40.4698 68.535 40.8708 68.5344 41.2813H71.2857C71.2863 40.6359 71.1567 39.997 70.9047 39.4031C70.5399 38.5417 69.9343 37.8046 69.1609 37.2809C68.3678 36.7405 67.4308 36.4524 66.472 36.454H65.0964C64.4529 36.4527 63.8158 36.582 63.2234 36.834C62.3525 37.2048 61.6093 37.8239 61.0862 38.6146C60.563 39.4052 60.2829 40.3325 60.2805 41.2813C60.2802 41.9267 60.4098 42.5656 60.6616 43.1596C61.0276 44.0202 61.633 44.7569 62.4053 45.2818C63.1994 45.8218 64.137 46.1099 65.0964 46.1086H66.472V43.3431Z" fill="white"/>
<path d="M65.0964 46.1108H66.472C66.7459 46.1103 67.017 46.1662 67.2686 46.2749C67.6391 46.4333 67.956 46.6957 68.1814 47.0305C68.372 47.3128 68.4893 47.6383 68.5228 47.9776C68.5563 48.3169 68.5048 48.6592 68.373 48.9735C68.2142 49.3446 67.9527 49.6623 67.6195 49.8889C67.2817 50.1211 66.8815 50.2446 66.472 50.2429H65.0964C64.8219 50.2441 64.5501 50.189 64.2977 50.081C63.9272 49.9226 63.6102 49.6602 63.3849 49.3254C63.1543 48.9862 63.0313 48.5852 63.0318 48.1747H60.2805C60.2802 48.8201 60.4098 49.459 60.6616 50.0529C61.0276 50.9136 61.633 51.6503 62.4053 52.1752C63.1998 52.7142 64.1371 53.0022 65.0964 53.002H66.472C67.1156 53.0023 67.7527 52.8724 68.345 52.6199C69.2023 52.2535 69.9363 51.6471 70.459 50.8733C70.9087 50.2085 71.185 49.4413 71.2629 48.6418C71.3407 47.8423 71.2176 47.0359 70.9047 46.2964C70.535 45.4234 69.918 44.6783 69.13 44.1537C68.342 43.6291 67.4178 43.348 66.472 43.3452H65.0964V46.1108Z" fill="white"/>
<path fill-rule="evenodd" clip-rule="evenodd" d="M36.6602 20.2578L49.0087 12V16.7373H71.0689C76.1442 16.7342 81.0994 18.2859 85.271 21.1848C89.4426 24.0837 92.6316 28.1914 94.4111 32.9579C96.1906 37.7245 96.4757 42.9225 95.2281 47.856C93.9805 52.7895 91.2598 57.223 87.4303 60.5632L80.6318 55.425C83.5386 53.3855 85.7209 50.4694 86.8616 47.1006C88.0022 43.7318 88.0416 40.0861 86.9742 36.6933C85.9067 33.3005 83.788 30.3376 80.926 28.2353C78.064 26.133 74.6079 25.001 71.0603 25.0038H49.0087V29.5886L36.6602 20.2578Z" fill="#48D597" fill-opacity="0.32"/>
<path fill-rule="evenodd" clip-rule="evenodd" d="M79.9942 73.2648V77.9996L92.3406 69.7439L79.9942 60.4131V64.9962H57.9408C54.3932 64.999 50.9371 63.8669 48.0752 61.7647C45.2132 59.6624 43.0944 56.6995 42.027 53.3067C40.9595 49.9139 40.9989 46.2681 42.1396 42.8994C43.2802 39.5306 45.4626 36.6145 48.3694 34.575L41.5708 29.439C37.7413 32.7791 35.0206 37.2127 33.773 42.1462C32.5255 47.0797 32.8105 52.2776 34.59 57.0442C36.3695 61.8107 39.5585 65.9184 43.7301 68.8173C47.9017 71.7162 52.8569 73.2679 57.9322 73.2648H79.9942Z" fill="#48D597" fill-opacity="0.32"/>
</g>
</g>
<defs>
<linearGradient id="paint0_linear_6226_13937" x1="64.5" y1="0" x2="64.5" y2="219.333" gradientUnits="userSpaceOnUse">
<stop stop-color="#48D597"/>
<stop offset="1" stop-color="#48D597" stop-opacity="0"/>
</linearGradient>
<linearGradient id="paint1_linear_6226_13937" x1="102.211" y1="75.3008" x2="38.7011" y2="32.7884" gradientUnits="userSpaceOnUse">
<stop stop-color="#15B470"/>
<stop offset="1" stop-color="#027E53"/>
</linearGradient>
<linearGradient id="paint2_linear_6226_13937" x1="102.212" y1="127.673" x2="13.337" y2="111.105" gradientUnits="userSpaceOnUse">
<stop stop-color="#3EE39C"/>
<stop offset="1" stop-color="#00A36A"/>
</linearGradient>
<linearGradient id="paint3_linear_6226_13937" x1="106.219" y1="82.8798" x2="110.873" y2="83.7812" gradientUnits="userSpaceOnUse">
<stop stop-color="#1D4289"/>
<stop offset="0.796875" stop-color="#00B74F"/>
</linearGradient>
<linearGradient id="paint4_linear_6226_13937" x1="92.5003" y1="104.667" x2="123.167" y2="84.0001" gradientUnits="userSpaceOnUse">
<stop stop-color="#19AD6E"/>
<stop offset="1" stop-color="#09E698"/>
</linearGradient>
<clipPath id="clip0_6226_13937">
<rect width="128" height="128" fill="white" transform="translate(0.5)"/>
</clipPath>
<clipPath id="clip1_6226_13937">
<rect width="128" height="136" fill="white" transform="translate(0.5)"/>
</clipPath>
<clipPath id="clip2_6226_13937">
<rect width="33.3333" height="28" fill="white" transform="translate(45.167 86.6666)"/>
</clipPath>
<clipPath id="clip3_6226_13937">
<rect width="63" height="66" fill="white" transform="translate(33 12)"/>
</clipPath>
</defs>
</svg>